<?xml version="1.0" encoding="utf-8"?>
<!-- Generator: Adobe Illustrator 23.0.1, SVG Export Plug-In . SVG Version: 6.00 Build 0)  -->
<svg version="1.1" xmlns="http://www.w3.org/2000/svg" xmlns:xlink="http://www.w3.org/1999/xlink" x="0px" y="0px"
	 viewBox="0 0 590 590" style="enable-background:new 0 0 590 590;" xml:space="preserve">
<style type="text/css">
	.st0{fill:#2C2D2A;}
	.st1{opacity:0.75;}
	.st2{fill:none;stroke:#BB9C60;stroke-width:2;stroke-miterlimit:10;}
	.st3{fill:#BB9C60;stroke:#BB9C60;stroke-miterlimit:10;}
	.st4{fill:#BB9C60;stroke:#BB9C60;stroke-width:2;stroke-miterlimit:10;}
	.st5{fill:#F9CB79;}
	.st6{fill:#FFFFFF;stroke:#FFFFFF;stroke-width:2;stroke-miterlimit:10;}
	.st7{fill:#F33A40;stroke:#F33A40;stroke-width:2;stroke-miterlimit:10;}
</style>
<g id="Layer_8">
	<path class="st0" d="M295.34,32.87c-144.74,0-262.08,117.34-262.08,262.09c0,144.74,117.34,262.08,262.08,262.08
		c144.75,0,262.09-117.34,262.09-262.08C557.43,150.21,440.09,32.87,295.34,32.87z M292.06,327.8l-6.84-1.13l-21.34-3.53
		l-3.53-21.34l-1.13-6.84l1.13-6.84l3.53-21.34v-0.01l21.33-3.53l6.85-1.13l6.85,1.13l21.34,3.53l3.53,21.34l1.13,6.85l-1.13,6.85
		l-3.53,21.33h-0.01l-21.34,3.53L292.06,327.8z"/>
</g>
<g id="Layer_1">
	<g class="st1">
		<polygon class="st2" points="292.06,96.24 292.06,262.11 285.21,263.24 263.88,266.77 266.66,249.95 		"/>
		<polygon class="st3" points="320.25,266.77 298.91,263.24 292.06,262.11 292.06,96.24 317.47,249.95 		"/>
	</g>
	<g class="st1">
		<polygon class="st2" points="320.25,323.14 320.25,323.15 317.47,339.97 292.06,493.67 292.06,327.8 298.9,326.67 320.24,323.14 
					"/>
		<polygon class="st4" points="292.06,327.8 292.06,493.67 266.66,339.97 263.88,323.14 285.22,326.67 		"/>
	</g>
	<g class="st1">
		<polygon class="st2" points="490.78,294.96 324.91,294.96 323.78,288.11 320.25,266.77 337.07,269.55 		"/>
		<polygon class="st4" points="490.78,294.96 337.07,320.36 320.25,323.14 323.78,301.81 324.91,294.96 		"/>
	</g>
	<g class="st1">
		<polygon class="st2" points="263.88,323.14 247.05,320.36 93.35,294.96 259.22,294.96 260.35,301.8 		"/>
		<polygon class="st4" points="263.88,266.77 263.88,266.78 260.35,288.12 259.22,294.96 93.35,294.96 247.05,269.55 263.87,266.77 
					"/>
	</g>
	<g>
		<path class="st5" d="M295.34,35.01c35.11,0,69.15,6.87,101.17,20.41c30.95,13.09,58.75,31.84,82.64,55.72s42.63,51.69,55.72,82.64
			c13.55,32.02,20.41,66.06,20.41,101.17s-6.87,69.15-20.41,101.17c-13.09,30.95-31.84,58.75-55.72,82.64s-51.69,42.63-82.64,55.72
			c-32.02,13.55-66.06,20.41-101.17,20.41s-69.15-6.87-101.17-20.41c-30.95-13.09-58.75-31.84-82.64-55.72s-42.63-51.69-55.72-82.64
			C42.27,364.1,35.4,330.06,35.4,294.95s6.87-69.15,20.41-101.17c13.09-30.95,31.84-58.75,55.72-82.64s51.69-42.63,82.64-55.72
			C226.2,41.88,260.24,35.01,295.34,35.01 M295.34,0.01C132.45,0.01,0.4,132.06,0.4,294.95S132.45,589.9,295.34,589.9
			s294.94-132.05,294.94-294.94S458.24,0.01,295.34,0.01L295.34,0.01z"/>
	</g>
	<g class="st1">
		<polygon class="st2" points="386.57,200.45 320.25,266.77 298.91,263.24 317.47,249.95 		"/>
		<polygon class="st3" points="386.57,200.45 337.07,269.55 323.78,288.11 320.25,266.77 		"/>
	</g>
	<polygon class="st4" points="324.91,294.96 323.78,301.81 320.25,323.14 320.24,323.14 298.9,326.67 292.06,327.8 285.22,326.67 
		263.88,323.14 260.35,301.8 259.22,294.96 260.35,288.12 263.88,266.78 263.88,266.77 285.21,263.24 292.06,262.11 298.91,263.24 
		320.25,266.77 323.78,288.11 	"/>
	<g>
		<polygon class="st2" points="285.22,326.67 266.66,339.97 197.55,389.47 263.88,323.14 		"/>
		<polygon class="st4" points="263.88,323.14 197.55,389.47 247.05,320.36 260.35,301.8 		"/>
	</g>
	<g class="st1">
		<polygon class="st2" points="386.57,389.47 320.25,323.15 320.24,323.14 320.25,323.14 323.78,301.81 337.07,320.36 		"/>
		<polygon class="st4" points="386.57,389.47 317.47,339.97 298.9,326.67 320.24,323.14 320.25,323.15 		"/>
	</g>
	<g class="st1">
		<polygon class="st2" points="263.88,266.78 260.35,288.12 247.05,269.55 197.55,200.45 263.87,266.77 		"/>
		<polygon class="st4" points="285.21,263.24 263.88,266.77 263.88,266.78 263.87,266.77 197.55,200.45 266.66,249.95 		"/>
	</g>
</g>
<g id="Layer_5">
	<g>
		<g>
			<path class="st5" d="M276.89,90.84V50.4h5.7l12.96,20.46c3,4.74,5.34,9,7.26,13.14l0.12-0.06c-0.48-5.4-0.6-10.32-0.6-16.62V50.4
				h4.92v40.44h-5.28l-12.84-20.52c-2.82-4.5-5.52-9.12-7.56-13.5l-0.18,0.06c0.3,5.1,0.42,9.96,0.42,16.68v17.28H276.89z"/>
		</g>
	</g>
	<g>
		<g>
			<path class="st5" d="M281.12,540.53c2.34,1.44,5.76,2.64,9.36,2.64c5.34,0,8.46-2.82,8.46-6.9c0-3.78-2.16-5.94-7.62-8.04
				c-6.6-2.34-10.68-5.76-10.68-11.46c0-6.3,5.22-10.98,13.08-10.98c4.14,0,7.14,0.96,8.94,1.98l-1.44,4.26
				c-1.32-0.72-4.02-1.92-7.68-1.92c-5.52,0-7.62,3.3-7.62,6.06c0,3.78,2.46,5.64,8.04,7.8c6.84,2.64,10.32,5.94,10.32,11.88
				c0,6.24-4.62,11.64-14.16,11.64c-3.9,0-8.16-1.14-10.32-2.58L281.12,540.53z"/>
		</g>
	</g>
	<g>
		<g>
			<path class="st5" d="M521.75,293.84h-15.72v14.58h17.52v4.38h-22.74v-40.44h21.84v4.38h-16.62v12.78h15.72V293.84z"/>
		</g>
	</g>
	<g>
		<g>
			<path class="st5" d="M54.76,312.8L44.5,272.36h5.52l4.8,20.46c1.2,5.04,2.28,10.08,3,13.98h0.12c0.66-4.02,1.92-8.82,3.3-14.04
				l5.4-20.4h5.46l4.92,20.52c1.14,4.8,2.22,9.6,2.82,13.86h0.12c0.84-4.44,1.98-8.94,3.24-13.98l5.34-20.4h5.34L82.42,312.8h-5.46
				l-5.1-21.06c-1.26-5.16-2.1-9.12-2.64-13.2H69.1c-0.72,4.02-1.62,7.98-3.12,13.2l-5.76,21.06H54.76z"/>
		</g>
	</g>
	<g>
		<g>
			<path class="st5" d="M413.03,131.72l28.59-28.59l4.03,4.03l-5.3,23.63c-1.23,5.47-2.59,10.14-4.16,14.42l0.13,0.04
				c3.48-4.16,6.87-7.72,11.33-12.18l11.96-11.96l3.48,3.48l-28.59,28.59l-3.73-3.73l5.43-23.59c1.19-5.18,2.55-10.35,4.2-14.89
				l-0.17-0.09c-3.39,3.82-6.75,7.34-11.5,12.09l-12.22,12.22L413.03,131.72z"/>
			<path class="st5" d="M469.15,161.03l-11.12-11.12l-10.31,10.31l12.39,12.39l-3.1,3.1l-16.08-16.08l28.59-28.59l15.44,15.44
				l-3.1,3.1l-11.75-11.75l-9.04,9.04l11.12,11.12L469.15,161.03z"/>
		</g>
	</g>
	<g>
		<g>
			<path class="st5" d="M456.81,423.4c-2.67,0.64-5.94,2.21-8.49,4.75c-3.78,3.78-3.99,7.98-1.1,10.86
				c2.67,2.67,5.73,2.67,11.07,0.3c6.32-3.01,11.62-3.48,15.65,0.55c4.46,4.45,4.07,11.45-1.48,17.01
				c-2.93,2.93-5.73,4.37-7.72,4.92l-1.99-4.03c1.44-0.42,4.2-1.48,6.79-4.07c3.9-3.9,3.05-7.72,1.1-9.67
				c-2.67-2.67-5.73-2.25-11.2,0.17c-6.7,2.97-11.5,3.1-15.7-1.1c-4.41-4.41-4.96-11.5,1.78-18.24c2.76-2.76,6.58-4.96,9.12-5.47
				L456.81,423.4z"/>
			<path class="st5" d="M429.49,468.55l11.12-11.12l-10.31-10.31l-12.39,12.39l-3.1-3.1l16.08-16.08l28.59,28.59l-15.44,15.44
				l-3.1-3.1l11.75-11.75l-9.04-9.04l-11.12,11.12L429.49,468.55z"/>
		</g>
	</g>
	<g>
		<g>
			<path class="st5" d="M173.72,464.61c-0.64-2.67-2.21-5.94-4.75-8.49c-3.78-3.78-7.98-3.99-10.86-1.1
				c-2.67,2.67-2.67,5.73-0.3,11.07c3.01,6.32,3.48,11.62-0.55,15.66c-4.45,4.46-11.45,4.07-17.01-1.49
				c-2.93-2.93-4.37-5.73-4.92-7.72l4.03-1.99c0.42,1.44,1.48,4.2,4.07,6.79c3.9,3.9,7.72,3.05,9.67,1.1
				c2.67-2.67,2.25-5.73-0.17-11.2c-2.97-6.7-3.1-11.5,1.1-15.7c4.41-4.41,11.5-4.96,18.24,1.78c2.76,2.76,4.96,6.58,5.47,9.12
				L173.72,464.61z"/>
			<path class="st5" d="M152.13,434.02l-21.34,35.85l-3.9-3.9l11.07-17.86c2.71-4.41,5.52-8.74,7.76-12.01l-0.08-0.08
				c-3.31,2.38-7.59,4.88-12.26,7.59l-18.24,10.61l-3.86-3.86l11.03-17.99c2.59-4.2,5.22-8.36,7.81-11.79l-0.08-0.08
				c-3.73,2.55-7.72,4.92-12.18,7.59l-18.2,10.65l-3.78-3.78l36.7-20.49l3.86,3.86l-11.29,18.5c-2.76,4.54-4.96,7.93-7.47,11.2
				l0.08,0.08c3.35-2.33,6.79-4.5,11.54-7.13l18.96-10.82L152.13,434.02z"/>
		</g>
	</g>
	<g>
		<g>
			<path class="st5" d="M123.92,184.1l-28.59-28.59l4.03-4.03l23.63,5.3c5.47,1.23,10.14,2.59,14.42,4.16l0.04-0.13
				c-4.16-3.48-7.72-6.87-12.18-11.33l-11.96-11.96l3.48-3.48l28.59,28.59l-3.73,3.73l-23.59-5.43c-5.18-1.19-10.35-2.54-14.89-4.2
				l-0.08,0.17c3.82,3.39,7.34,6.75,12.09,11.5l12.22,12.22L123.92,184.1z"/>
			<path class="st5" d="M156.5,151.52l-35.85-21.34l3.9-3.9l17.86,11.07c4.41,2.71,8.74,5.52,12.01,7.76l0.08-0.08
				c-2.38-3.31-4.88-7.59-7.59-12.26l-10.61-18.24l3.86-3.86l17.99,11.03c4.2,2.59,8.36,5.22,11.79,7.81l0.08-0.08
				c-2.55-3.73-4.92-7.72-7.59-12.18l-10.65-18.2l3.78-3.78l20.49,36.7l-3.86,3.86l-18.5-11.29c-4.54-2.76-7.93-4.96-11.2-7.47
				l-0.08,0.08c2.33,3.35,4.5,6.79,7.13,11.54l10.82,18.96L156.5,151.52z"/>
		</g>
	</g>
</g>
<g id="Layer_3">
	<g>
		<path class="st6" d="M260.99,305.63c4.44,12.92,16.7,22.19,31.12,22.17c14.42-0.02,26.66-9.33,31.05-22.26l-30.79,188.14
			L260.99,305.63z"/>
	</g>
	<g>
		<path class="st7" d="M323.14,284.28c-4.45-12.91-16.7-22.18-31.12-22.16c-14.42,0.02-26.65,9.33-31.06,22.26l30.8-188.13
			L323.14,284.28z"/>
	</g>
	<path class="st5" d="M249.76,295.02c-0.01-4.79,0.79-9.39,2.24-13.69l0-0.01c5.67-16.65,21.43-28.64,40.01-28.67
		c18.58-0.03,34.37,11.92,40.09,28.55l0,0.01c1.47,4.3,2.27,8.9,2.28,13.69c0.01,4.79-0.79,9.39-2.24,13.69
		c-5.66,16.66-21.43,28.65-40.01,28.68c-18.58,0.03-34.38-11.92-40.09-28.56C250.57,304.41,249.76,299.81,249.76,295.02z"/>
</g>
</svg>
